<?xml version="1.0" encoding="UTF-8" standalone="no"?>
<!-- Created with Inkscape (http://www.inkscape.org/) -->

<svg
   xmlns:dc="http://purl.org/dc/elements/1.1/"
   xmlns:cc="http://creativecommons.org/ns#"
   xmlns:rdf="http://www.w3.org/1999/02/22-rdf-syntax-ns#"
   xmlns:svg="http://www.w3.org/2000/svg"
   xmlns="http://www.w3.org/2000/svg"
   xmlns:xlink="http://www.w3.org/1999/xlink"
   xmlns:sodipodi="http://sodipodi.sourceforge.net/DTD/sodipodi-0.dtd"
   xmlns:inkscape="http://www.inkscape.org/namespaces/inkscape"
   width="210mm"
   height="297mm"
   viewBox="0 0 210 297"
   version="1.1"
   id="svg8"
   inkscape:version="0.92.3 (2405546, 2018-03-11)"
   sodipodi:docname="dd.svg">
  <defs
     id="defs2" />
  <sodipodi:namedview
     id="base"
     pagecolor="#ffffff"
     bordercolor="#666666"
     borderopacity="1.0"
     inkscape:pageopacity="0.0"
     inkscape:pageshadow="2"
     inkscape:zoom="1.4"
     inkscape:cx="201.7624"
     inkscape:cy="642.79978"
     inkscape:document-units="mm"
     inkscape:current-layer="svg8"
     showgrid="false"
     inkscape:window-width="1920"
     inkscape:window-height="1000"
     inkscape:window-x="0"
     inkscape:window-y="0"
     inkscape:window-maximized="1" />
  <metadata
     id="metadata5">
    <rdf:RDF>
      <cc:Work
         rdf:about="">
        <dc:format>image/svg+xml</dc:format>
        <dc:type
           rdf:resource="http://purl.org/dc/dcmitype/StillImage" />
        <dc:title />
      </cc:Work>
    </rdf:RDF>
  </metadata>
  <path
     style="fill:none;stroke:#000000;stroke-width:0.26458332px;stroke-linecap:butt;stroke-linejoin:miter;stroke-opacity:1"
     d="m 47.325699,166.74409 34.419568,-12.68872 65.940133,15.22778 29.72038,-5.67077"
     id="path4577"
     inkscape:connector-curvature="0"
     sodipodi:nodetypes="cccc" />
  <g
     inkscape:label="Layer 1"
     inkscape:groupmode="layer"
     id="layer1">
    <path
       id="path815-6"
       style="fill:#3f00f9;fill-opacity:1;stroke:none;stroke-width:4.35477448;stroke-miterlimit:4;stroke-dasharray:none;stroke-opacity:1"
       d="m 99.204422,217.80649 c -66.136281,52.79567 -33.068141,26.39784 0,0 z"
       inkscape:connector-curvature="0"
       sodipodi:nodetypes="cc" />
    <path
       id="path969"
       style="fill:#3f00f9;fill-opacity:1;stroke:none;stroke-width:17.96409416;stroke-miterlimit:4;stroke-dasharray:none;stroke-opacity:1"
       d="m 414.81055,324.5 a 249.50767,254.05336 0 0 0 -195.3086,96.41992 249.50767,254.05336 0 0 0 -53.21484,170.28516 c 26.03036,-21.93298 50.1756,-37.78143 72.42773,-47.5293 23.82528,-10.6246 48.57556,-15.93555 74.25391,-15.93555 29.11978,0 63.13812,9.10672 102.05273,27.32032 l 5.95508,2.73242 c 2.1178,0.91068 5.03018,2.12478 8.73633,3.64258 41.03242,18.82071 73.99082,28.23047 98.875,28.23047 22.76638,0 45.26894,-5.76746 67.50586,-17.30274 19.36587,-9.92774 40.50112,-25.04173 63.39648,-45.3125 A 249.50767,254.05336 0 0 0 569.60352,379.00977 249.50767,254.05336 0 0 0 414.81055,324.5 Z M 303.83594,603.32617 c -23.29583,0 -46.32738,5.91898 -69.09375,17.75781 -17.59073,8.91288 -36.13386,21.92212 -55.6211,38.99024 a 249.50767,254.05336 0 0 0 80.85938,117.4082 l 1.52539,1.22266 A 249.50767,254.05336 0 0 0 611.44531,735.4082 249.50767,254.05336 0 0 0 663.36719,604.0918 c -24.99666,20.73517 -48.35269,35.82337 -70.05469,45.22461 -23.56055,10.32103 -48.17907,15.48047 -73.85742,15.48047 -29.11978,0 -63.00441,-8.9552 -101.6543,-26.86524 -2.91198,-1.21424 -5.02989,-2.1253 -6.35351,-2.73242 -1.85308,-0.91068 -4.76545,-2.12478 -8.73633,-3.64258 -41.03242,-18.82072 -73.99083,-28.23047 -98.875,-28.23047 z"
       transform="scale(0.26458333)"
       inkscape:connector-curvature="0" />
    <flowRoot
       xml:space="preserve"
       id="flowRoot991"
       style="font-style:normal;font-weight:normal;font-size:40px;line-height:1.25;font-family:sans-serif;letter-spacing:0px;word-spacing:0px;fill:#000000;fill-opacity:1;stroke:none"><flowRegion
         id="flowRegion993"><rect
           id="rect995"
           width="265.71429"
           height="140"
           x="35.714287"
           y="56.805397" /></flowRegion><flowPara
         id="flowPara997" /></flowRoot>    <flowRoot
       xml:space="preserve"
       id="flowRoot1017"
       style="font-style:normal;font-weight:normal;font-size:40px;line-height:1.25;font-family:sans-serif;letter-spacing:0px;word-spacing:0px;fill:#000000;fill-opacity:1;stroke:none"><flowRegion
         id="flowRegion1019"><rect
           id="rect1021"
           width="508.57144"
           height="255"
           x="126.42857"
           y="59.66254" /></flowRegion><flowPara
         id="flowPara1023" /></flowRoot>  </g>
  <g
     id="g1059"
     inkscape:groupmode="layer"
     inkscape:label="Layer 1 kopia">
    <flowRoot
       style="font-style:normal;font-weight:normal;font-size:40px;line-height:1.25;font-family:sans-serif;letter-spacing:0px;word-spacing:0px;fill:#000000;fill-opacity:1;stroke:none"
       id="flowRoot1057"
       xml:space="preserve"><flowRegion
         id="flowRegion1053"><rect
           y="59.66254"
           x="126.42857"
           height="255"
           width="508.57144"
           id="rect1051" /></flowRegion><flowPara
         id="flowPara1055" /></flowRoot>    <flowRoot
       style="font-style:normal;font-weight:normal;font-size:40px;line-height:1.25;font-family:sans-serif;letter-spacing:0px;word-spacing:0px;fill:#000000;fill-opacity:1;stroke:none"
       id="flowRoot1035"
       xml:space="preserve"><flowRegion
         id="flowRegion1031"><rect
           y="56.805397"
           x="35.714287"
           height="140"
           width="265.71429"
           id="rect1029" /></flowRegion><flowPara
         id="flowPara1033" /></flowRoot>    <text
       xml:space="preserve"
       style="font-style:normal;font-weight:normal;font-size:10.58333302px;line-height:1.25;font-family:sans-serif;letter-spacing:0px;word-spacing:0px;fill:#000000;fill-opacity:1;stroke:none;stroke-width:0.26458332"
       id="text4583"
       x="7.3705359"
       y="-11.150297"
       transform="translate(-0.94494048,-3.96875)"><textPath
         xlink:href="#path4577"
         id="textPath4585"><tspan
   style="stroke-width:0.26458332"
   id="tspan4581"><tspan
     id="tspan4579"
     style="font-size:10.58333302px;stroke-width:0.26458332"
     y="29.855463"
     x="86.643974"> Moje piękne </tspan></tspan></textPath></text>
  </g>
</svg>
